<?xml version="1.0" encoding="UTF-8" standalone="no"?>
<!-- Created with Inkscape (http://www.inkscape.org/) -->

<svg
   width="210mm"
   height="297mm"
   viewBox="0 0 210 297"
   version="1.1"
   id="svg1"
   xml:space="preserve"
   inkscape:version="1.3.2 (091e20e, 2023-11-25, custom)"
   sodipodi:docname="logoDrMachine.svg"
   xmlns:inkscape="http://www.inkscape.org/namespaces/inkscape"
   xmlns:sodipodi="http://sodipodi.sourceforge.net/DTD/sodipodi-0.dtd"
   xmlns="http://www.w3.org/2000/svg"
   xmlns:svg="http://www.w3.org/2000/svg"><sodipodi:namedview
     id="namedview1"
     pagecolor="#ffffff"
     bordercolor="#000000"
     borderopacity="0.25"
     inkscape:showpageshadow="2"
     inkscape:pageopacity="0.0"
     inkscape:pagecheckerboard="0"
     inkscape:deskcolor="#d1d1d1"
     inkscape:document-units="mm"
     inkscape:zoom="0.07161496"
     inkscape:cx="4887.247"
     inkscape:cy="-4866.3017"
     inkscape:window-width="3840"
     inkscape:window-height="2054"
     inkscape:window-x="-11"
     inkscape:window-y="-11"
     inkscape:window-maximized="1"
     inkscape:current-layer="layer1" /><defs
     id="defs1" /><g
     inkscape:label="Capa 1"
     inkscape:groupmode="layer"
     id="layer1"><path
       id="rect7"
       style="fill:#000000;stroke-width:0.0455231"
       d="m 128.22564,76.225619 c -0.48131,0.0519 -0.87756,0.1847 -1.31618,0.41197 -0.79047,0.40961 -0.91458,0.54071 -1.36179,1.43883 -0.40233,0.808 -0.40504,0.82055 -0.36675,1.69608 0.033,0.75523 0.0836,0.97358 0.35196,1.51863 0.35139,0.71377 0.84655,1.19265 1.62912,1.57552 0.28086,0.13742 0.52846,0.27861 0.55018,0.31374 0.0217,0.0352 0.10538,0.90773 0.18591,1.93903 0.17944,2.29799 0.31426,12.5295 0.26915,20.423941 -0.0255,4.45639 -0.002,5.8792 0.12045,7.27127 0.0837,0.95188 0.15212,1.7649 0.15212,1.80669 0,0.0418 -0.0759,0.0774 -0.16862,0.0791 -0.30578,0.006 -1.14842,0.33945 -1.70884,0.67678 -0.50195,0.30218 -0.59005,0.40893 -0.9856,1.19425 l -0.43438,0.86242 0.0393,0.87202 c 0.0763,1.69168 0.82902,2.69585 2.43785,3.25217 0.41299,0.14281 0.87829,0.16752 3.20892,0.1702 1.49924,0.002 3.14034,-0.0431 3.64687,-0.0995 1.04411,-0.11643 2.06487,-0.3585 2.89149,-0.68573 0.55982,-0.22159 0.56791,-0.23049 1.03574,-1.13418 0.45204,-0.87318 0.47137,-0.94286 0.46752,-1.68627 -0.005,-0.89543 -0.22512,-1.62964 -0.69412,-2.31129 -0.24664,-0.35848 -0.47009,-0.52641 -1.16445,-0.87512 -0.50856,-0.25543 -0.99157,-0.43154 -1.18347,-0.43154 h -0.32424 l -0.0872,-1.61402 c -0.048,-0.88769 -0.0766,-3.21833 -0.0636,-5.17921 0.0402,-6.09268 -0.16569,-20.435581 -0.31932,-22.239151 -0.1862,-2.18596 -0.19197,-2.09064 0.12712,-2.09339 0.36259,-0.003 1.26201,-0.38498 1.70788,-0.72504 0.25999,-0.19832 0.49288,-0.53488 0.79548,-1.14965 0.41541,-0.84389 0.42652,-0.89028 0.38131,-1.59188 -0.0565,-0.87654 -0.31207,-1.58023 -0.81672,-2.24864 -0.33497,-0.44368 -0.49492,-0.55367 -1.38,-0.94891 l -1.00112,-0.44703 -1.73442,0.0969 c -1.46598,0.0819 -1.93976,0.0716 -3.06093,-0.0663 -0.77888,-0.0958 -1.34526,-0.12462 -1.82658,-0.0726 z m -79.320972,0.91731 c -1.133811,-0.0289 -2.281104,0 -3.035258,0.0769 -0.666862,0.0678 -1.819515,0.1296 -2.561468,0.13731 -1.144303,0.0119 -1.431552,0.0464 -1.893141,0.22786 -0.714891,0.28098 -1.327335,0.83266 -1.693461,1.52551 -0.473496,0.89607 -0.534052,1.40012 -0.422729,3.51936 0.128338,2.44326 0.140154,8.27752 0.03596,17.758391 -0.04661,4.23976 -0.05286,8.48909 -0.01391,9.44304 0.03896,0.95394 0.07397,3.2391 0.07782,5.07812 0.0043,2.04793 0.04845,3.54155 0.113876,3.85431 0.10687,0.5108 0.525152,1.39389 0.83871,1.77074 0.287414,0.34541 0.976474,0.79435 1.471642,0.95883 0.98257,0.32636 1.406531,0.34194 3.65332,0.13438 3.793363,-0.35042 6.97106,-1.12322 9.298527,-2.26134 1.148113,-0.56141 2.842535,-1.61641 2.842535,-1.76982 0,-0.0523 0.125533,-0.21648 0.278943,-0.36492 0.332087,-0.3213 1.689265,-2.74137 2.181217,-3.88944 0.749248,-1.74853 0.815984,-2.14266 0.815984,-4.81754 0,-3.56117 -0.316019,-5.51587 -1.190188,-7.36119 -0.533091,-1.12539 -0.902297,-1.680141 -1.589507,-2.388251 -0.322593,-0.33242 -0.499897,-0.58545 -0.44434,-0.63412 0.05084,-0.0445 0.422754,-0.34659 0.826501,-0.67124 1.669076,-1.34207 2.702222,-2.93368 3.184294,-4.90566 0.167492,-0.68518 0.204318,-1.10567 0.191859,-2.18919 -0.01666,-1.45734 -0.280542,-3.52759 -0.596494,-4.68122 -0.277651,-1.01383 -1.035725,-2.52636 -1.691752,-3.37542 -0.305753,-0.39572 -0.638844,-0.86005 -0.740213,-1.03183 -0.10135,-0.17178 -0.284946,-0.36699 -0.407992,-0.43377 -0.123071,-0.0668 -0.602656,-0.41094 -1.065727,-0.76481 -1.572215,-1.20146 -3.468511,-2.08954 -5.64813,-2.64513 -0.846604,-0.21582 -1.264317,-0.26026 -2.816821,-0.29983 z m 22.732402,0.26531 c -2.848128,0.0797 -3.240011,0.13623 -4.350637,0.62741 -0.847677,0.37487 -1.072778,0.5883 -1.505988,1.42795 -0.387294,0.75066 -0.405045,0.82262 -0.395668,1.60494 0.007,0.59665 0.06589,0.95735 0.21625,1.32847 0.205365,0.50688 0.206388,0.5505 0.204428,8.62402 0,4.46301 0.04949,11.475021 0.112388,15.582261 0.10758,7.02554 0.104248,7.51832 -0.05617,8.32262 -0.273173,1.36966 -0.04343,2.66391 0.671217,3.78109 0.29063,0.45431 0.433455,0.5669 1.221171,0.96251 l 0.892054,0.44803 0.832505,-0.0475 c 1.443355,-0.0823 2.320348,-0.62547 2.838333,-1.75791 0.694929,-1.51931 0.671769,-1.18067 0.645711,-9.44448 l -0.0234,-7.41953 1.40427,0.002 c 1.220986,0.002 1.416287,0.0233 1.496101,0.16587 0.132945,0.23756 1.37096,3.65386 2.732696,7.54091 1.354372,3.86603 2.352543,6.49866 3.383295,8.92327 0.672087,1.58091 0.750387,1.71744 1.149326,2.00394 1.16995,0.84017 2.147858,1.00317 3.419336,0.56985 v 4e-5 c 0.291476,-0.0993 0.757303,-0.33135 1.035156,-0.51561 0.43528,-0.28864 0.565218,-0.45461 0.939465,-1.19975 0.238859,-0.47564 0.434325,-0.96662 0.434325,-1.09105 0,-0.30605 -2.269422,-7.04387 -3.949493,-11.72592 -0.751165,-2.09338 -1.532241,-4.2699 -1.735713,-4.83669 l -0.369984,-1.03052 0.642746,-0.21141 c 0.931478,-0.306381 1.443583,-0.585441 2.248915,-1.225391 1.281769,-1.01857 2.177174,-2.29115 2.775451,-3.94452 0.476786,-1.31764 0.5808,-2.17682 0.5808,-4.79699 0,-2.56884 -0.08298,-3.24653 -0.595489,-4.86406 -0.580917,-1.8333 -1.758463,-3.82927 -2.743721,-4.65064 -0.664308,-0.55383 -1.679887,-1.19943 -2.401277,-1.52652 -1.534979,-0.696 -2.606685,-0.92219 -6.737838,-1.42218 -2.250164,-0.27231 -2.385369,-0.27783 -5.010558,-0.20436 z m 32.80987,0.029 c -0.91359,-0.10822 -2.17343,0.32218 -2.95976,1.01111 l -0.40614,0.35581 -0.34637,1.92716 c -1.032528,5.7448 -2.340697,10.9866 -4.545022,18.21158 -1.951167,6.395201 -3.041671,10.145841 -4.426616,15.224481 -0.807016,2.9593 -0.813638,2.99273 -0.710236,3.5953 0.1186,0.69104 0.469093,1.5428 0.829105,2.01484 0.28162,0.36921 1.558188,1.0501 2.144557,1.14387 0.856595,0.13697 2.284135,-0.32225 3.027178,-0.9738 0.147003,-0.12889 0.350108,-0.42757 0.451341,-0.66378 0.450064,-1.04994 1.340588,-4.02912 2.119844,-7.09178 l 0.845829,-3.32431 0.27773,0.0187 c 0.73057,0.0493 5.7784,0.52677 6.56449,0.62093 l 0.89074,0.10667 0.20028,0.68678 c 0.58202,1.99583 1.35369,4.40959 2.25618,7.05709 1.10535,3.24265 1.08787,3.21135 2.07347,3.71164 1.02752,0.52154 1.93976,0.57154 2.94604,0.16146 1.12457,-0.45827 1.34068,-0.65739 1.88007,-1.73225 l 0.49085,-0.97806 -0.77586,-2.6103 c -2.07215,-6.97156 -3.08417,-10.8121 -5.63894,-21.399951 -1.22917,-5.09409 -3.41524,-14.01462 -3.63296,-14.8247 -0.0611,-0.22752 -0.25572,-0.51774 -0.50293,-0.75028 -0.50076,-0.47099 -2.44794,-1.4266 -3.05287,-1.49825 z m 61.73744,0.363 c -1.25237,0.17011 -2.01881,0.71977 -2.59411,1.86033 l -0.39427,0.78167 0.10847,1.5899 c 0.0786,1.1522 0.0816,2.87646 0.0108,6.26325 -0.0537,2.57033 -0.1312,6.92814 -0.17217,9.68399 -0.0443,2.978721 -0.11318,5.079771 -0.16988,5.181091 -0.16897,0.3019 -1.97729,-3.620351 -6.25365,-13.564261 -1.5498,-3.60376 -3.06758,-7.12884 -3.37287,-7.83346 -0.44669,-1.03097 -0.60889,-1.30894 -0.83066,-1.42363 -0.17347,-0.0897 -0.3832,-0.35575 -0.56603,-0.71795 -0.27954,-0.55374 -0.32378,-0.5921 -1.17577,-1.02001 l -0.8853,-0.44461 -0.87203,0.0393 c -1.49338,0.0673 -2.45848,0.69246 -3.07367,1.9909 l -0.30364,0.6409 0.0303,4.57699 c 0.0273,4.10781 0.0742,5.27701 0.4577,11.40626 l 0.42733,6.829281 6.1e-4,6.41988 c 4.6e-4,3.98339 0.0388,6.65444 0.10099,7.03791 0.21849,1.34665 0.8425,2.19688 2.01669,2.74789 0.76846,0.36063 0.80854,0.36852 1.6347,0.3214 1.47937,-0.0843 2.28374,-0.59152 2.90831,-1.83373 l 0.38699,-0.76964 -0.0538,-8.10604 c -0.0296,-4.4583 -0.077,-8.45292 -0.10545,-8.87691 l -0.0516,-0.770831 0.65002,1.348991 c 0.3575,0.74194 1.69968,3.43031 2.98265,5.97414 2.2437,4.44882 3.7943,7.69384 4.99569,10.45481 0.31132,0.71546 0.64399,1.38978 0.73929,1.49852 0.24343,0.27774 1.34331,0.81234 2.1991,1.06888 0.89522,0.26836 2.06809,0.29731 2.75308,0.068 0.26118,-0.0875 0.69851,-0.30578 0.97181,-0.48521 0.41086,-0.26973 0.56688,-0.46072 0.90097,-1.10287 l 0.40407,-0.77667 -0.0151,-6.75988 c -0.009,-4.04474 0.0262,-7.30173 0.0878,-8.1089 0.0566,-0.74196 0.15317,-4.405971 0.21452,-8.142231 0.0613,-3.73625 0.12796,-7.63873 0.14803,-8.67216 0.0641,-3.30261 -0.16896,-5.16231 -0.85351,-6.80957 l -0.28708,-0.69083 -0.78921,-0.41145 c -0.93032,-0.48499 -1.42334,-0.5839 -2.31028,-0.46343 z m -118.973945,6.35179 c 1.067688,-0.0712 2.274262,0.0605 3.138226,0.34233 1.116904,0.36443 2.309329,0.94898 2.680428,1.31406 0.178303,0.1754 0.453234,0.41444 0.610962,0.53119 0.350885,0.25976 0.922283,1.33462 1.090896,2.05213 0.143462,0.6105 0.163633,1.44061 0.05464,2.25151 -0.06363,0.47361 -0.139383,0.63405 -0.467132,0.98964 -0.842336,0.91382 -2.135198,1.58362 -3.783729,1.96029 -1.031394,0.23564 -1.335114,0.25748 -2.746159,0.19756 l -1.204473,-0.0512 -0.07185,-2.84253 c -0.03951,-1.56341 -0.06119,-3.70979 -0.04815,-4.76972 l 0.02364,-1.92714 z m 25.631101,0.28905 h 0.274478 c 0.397726,0 4.32061,0.27722 4.832464,0.34148 0.724471,0.091 1.802014,0.41341 2.469764,0.73899 0.528876,0.25786 0.678592,0.38801 0.913616,0.79433 0.154598,0.26729 0.392753,0.83983 0.529238,1.27235 0.238883,0.75715 0.246864,0.85927 0.213897,2.7462 -0.03167,1.81069 -0.05078,1.99089 -0.251133,2.36847 -0.296584,0.55892 -0.86032,0.82527 -2.500091,1.18132 -2.599316,0.56439 -4.325541,0.69973 -5.880005,0.46101 l -0.602228,-0.0925 v -4.90579 z m 31.795184,11.27796 c 0.0926,0.1723 1.41574,5.569691 1.50494,6.138671 l 0.0642,0.40952 -0.32546,-0.013 c -0.17902,-0.007 -0.90256,-0.0676 -1.60786,-0.13412 -0.7053,-0.0666 -1.30668,-0.14531 -1.33638,-0.17504 -0.0297,-0.0297 0.18725,-0.93417 0.48217,-2.009871 0.29491,-1.0757 0.62778,-2.32434 0.73967,-2.77482 0.3841,-1.54638 0.39866,-1.59032 0.47873,-1.44125 z m -58.293495,5.171161 0.939465,0.0557 c 1.709864,0.10146 3.314501,0.63543 3.974748,1.32266 0.238472,0.24824 0.792211,0.74419 1.230481,1.10212 0.43827,0.35792 0.838985,0.72947 0.890481,0.82568 0.390767,0.73018 0.648559,3.34138 0.47477,4.80935 -0.17189,1.45221 -0.659536,2.82198 -1.040056,2.92148 -0.105344,0.0276 -0.27101,0.23797 -0.378241,0.48039 -0.175161,0.39597 -0.250196,0.45609 -0.914939,0.73282 -0.718125,0.29895 -4.422757,1.26783 -4.847728,1.26783 -0.121699,0 -0.241205,-0.0325 -0.26562,-0.0723 -0.06817,-0.11107 -0.114281,-5.11956 -0.08748,-9.50521 z m 81.133005,24.28699 c -1.00787,-0.0167 -1.15604,0.004 -1.63806,0.22811 -0.79203,0.36836 -1.12652,0.70366 -1.55799,1.56181 -0.38594,0.76759 -0.39003,0.78689 -0.3519,1.65867 0.0329,0.75315 0.0839,0.97414 0.34885,1.5123 0.36129,0.73389 0.84275,1.20333 1.65452,1.6131 0.31955,0.16131 0.581,0.35508 0.581,0.43063 0,0.0755 0.0619,0.90959 0.1375,1.85349 0.17093,2.13346 0.3087,12.81515 0.26325,20.40951 -0.0266,4.44525 -0.004,5.83104 0.12144,7.26869 0.16846,1.939 0.18236,1.87024 -0.39939,1.97937 -0.46622,0.0875 -1.07219,0.36856 -1.54984,0.71895 -0.31325,0.2298 -0.51028,0.49883 -0.80181,1.09482 -0.3784,0.77355 -0.38577,0.80838 -0.35014,1.65737 0.0464,1.10679 0.37483,1.89599 1.02886,2.47261 0.93127,0.82104 1.66373,1.01946 3.61197,0.97836 0.74738,-0.0157 2.2044,-0.0474 3.23783,-0.0703 2.03525,-0.0451 2.74481,-0.15678 4.09005,-0.64355 l 0.78584,-0.28435 0.44744,-0.93729 c 0.24609,-0.51552 0.47148,-1.08357 0.5009,-1.26231 0.11756,-0.71427 -0.22831,-2.00757 -0.74608,-2.78977 -0.2617,-0.39534 -1.95422,-1.29056 -2.36025,-1.24841 l -0.26076,0.0271 -0.094,-1.3972 c -0.0518,-0.76845 -0.0848,-3.19667 -0.0736,-5.39603 0.0366,-7.13563 -0.15675,-20.16462 -0.3307,-22.29231 -0.16629,-2.03381 -0.16001,-2.08074 0.27788,-2.08466 0.32211,-0.003 1.18942,-0.38749 1.55638,-0.69016 0.53434,-0.44073 1.21838,-1.86617 1.21517,-2.53228 -0.003,-0.64569 -0.14294,-1.22437 -0.44136,-1.82673 -0.39215,-0.79157 -0.70189,-1.08108 -1.63274,-1.52602 l -0.86247,-0.41221 -2.64983,-0.0265 c -1.4574,-0.0146 -3.14847,-0.0347 -3.75794,-0.0448 z m -31.84614,0.5836 -0.801087,0.0527 c -1.404932,0.0925 -2.318113,0.64169 -2.797882,1.68258 -0.691162,1.49947 -0.712086,1.67949 -0.801682,6.90635 -0.04453,2.59683 -0.105956,7.58333 -0.136577,11.0811 -0.05231,5.9727 -0.04349,6.48214 0.144994,8.37424 0.149991,1.50578 0.201102,2.69838 0.202357,4.72154 0,1.48877 0.04802,3.11879 0.104652,3.62226 0.0566,0.50347 0.09873,1.56411 0.09357,2.35697 -0.008,1.22599 0.02101,1.53294 0.193935,2.05257 0.302422,0.90885 0.683952,1.35028 1.583302,1.832 l 0.769058,0.41194 0.915368,-0.0314 c 0.758945,-0.026 1.019162,-0.0785 1.522502,-0.30682 0.985846,-0.44725 1.659823,-1.32434 1.98598,-2.58456 0.130207,-0.50309 0.125986,-0.84452 -0.04349,-3.51704 -0.106686,-1.68269 -0.187914,-4.06764 -0.188257,-5.52715 0,-1.61985 -0.05458,-3.07776 -0.146886,-3.95063 l -0.146292,-1.3834 0.842929,-0.79208 c 0.463617,-0.43564 0.870947,-0.76085 0.905151,-0.72268 0.03418,0.0382 0.290785,0.76317 0.570215,1.61112 0.72175,2.19034 1.66966,4.5228 3.03484,7.46771 1.69582,3.65817 2.63721,5.79685 3.75358,8.52764 0.19499,0.47697 0.41911,0.96761 0.49805,1.09032 0.0789,0.1227 0.54178,0.41904 1.0285,0.65854 0.88177,0.43389 0.88798,0.43531 1.72075,0.39166 0.67347,-0.0353 0.95418,-0.1004 1.44537,-0.33517 0.83105,-0.39722 1.09138,-0.67638 1.5843,-1.69896 l 0.42289,-0.87724 -0.46805,-1.44536 c -1.03947,-3.20993 -2.37475,-6.68235 -3.96476,-10.31026 -1.62867,-3.71614 -2.60036,-6.29151 -3.51319,-9.31143 -0.54967,-1.8185 -0.59851,-2.05565 -0.44314,-2.15167 0.0499,-0.0309 0.66513,-0.80305 1.36714,-1.71602 0.70201,-0.91296 1.56093,-1.9902 1.90868,-2.39385 1.33077,-1.54469 2.51004,-3.36211 3.80551,-5.86483 l 0.87378,-1.688 v -0.96358 c 0,-0.84449 -0.032,-1.0319 -0.25901,-1.51623 -0.14246,-0.30398 -0.37255,-0.70147 -0.51128,-0.88336 -0.3126,-0.40984 -1.56645,-1.07081 -2.18093,-1.14969 -0.95224,-0.1222 -2.27374,0.27858 -2.90916,0.88227 -0.1494,0.14196 -0.56133,0.82143 -0.91541,1.51 -1.19089,2.31594 -2.58076,4.23374 -5.9276,8.1792 -0.803646,0.94737 -1.685361,2.0003 -1.959379,2.33985 -0.274018,0.33954 -0.512944,0.5834 -0.530995,0.54189 -0.04563,-0.10513 0.09318,-8.47025 0.165985,-10.00031 0.06838,-1.43717 -0.03908,-2.12226 -0.534138,-3.40606 l -0.308997,-0.80125 -0.977632,-0.48274 z m 88.27695,0.31785 c -0.87521,0.0173 -1.73084,0.1102 -2.32607,0.27351 -2.69636,0.7399 -5.08536,2.71719 -6.99513,5.78966 -1.5654,2.51848 -2.61219,5.99901 -3.21104,10.67668 -0.18071,1.41151 -0.21819,8.68691 -0.0517,10.03896 0.49451,4.01631 2.06623,7.92807 4.64527,11.56122 1.38266,1.94782 3.21058,3.28943 5.42416,3.98104 1.18934,0.37161 1.89363,0.46747 3.39724,0.46247 1.64199,-0.006 2.71408,-0.13661 3.63262,-0.44438 0.37097,-0.1243 0.68751,-0.19051 0.70344,-0.14715 0.0159,0.0434 0.18979,0.31076 0.38637,0.59421 0.28958,0.41756 0.50353,0.59246 1.12734,0.92158 0.72232,0.3811 0.81922,0.40643 1.56727,0.40954 0.54529,0.002 0.96302,-0.0549 1.32136,-0.18088 0.94336,-0.33156 1.35797,-0.71342 1.83644,-1.6914 l 0.42595,-0.87062 -0.33603,-5.29967 c -0.2585,-4.07696 -0.33039,-5.82879 -0.31159,-7.59316 l 0.0245,-2.29348 0.56224,-0.22846 c 0.99965,-0.40619 1.28813,-0.67203 1.76959,-1.63068 l 0.43565,-0.86742 -0.0393,-0.87202 c -0.0633,-1.40336 -0.5543,-2.27155 -1.59998,-2.8289 -1.04474,-0.55683 -1.39116,-0.59302 -5.75334,-0.60093 -2.17285,-0.004 -4.16747,-0.0498 -4.43246,-0.10195 -0.85776,-0.16877 -2.16592,-0.21394 -2.70458,-0.0934 -0.28072,0.0628 -0.77492,0.28517 -1.09822,0.49414 -0.54188,0.35022 -0.62146,0.44908 -1.01825,1.26431 -0.47761,0.9813 -0.54416,1.52289 -0.29976,2.44004 0.31026,1.1643 0.8245,1.79833 1.84132,2.27021 1.13071,0.52473 1.90678,0.66872 3.60478,0.66872 1.76515,0 1.74675,-0.011 1.74558,1.0427 -0.003,2.6633 -0.614,5.53923 -1.66456,7.83446 -0.32343,0.70661 -0.35075,0.73677 -0.70859,0.78249 -0.20472,0.0262 -0.76247,0.01 -1.23944,-0.0361 -0.96937,-0.0935 -2.00017,-0.51743 -2.47324,-1.01719 -0.48591,-0.51331 -1.5447,-2.20044 -2.15565,-3.4349 -1.47208,-2.97447 -1.8448,-5.12356 -1.75312,-10.10846 0.0382,-2.07352 0.0918,-2.82674 0.29724,-4.16886 0.50964,-3.33041 0.93628,-4.97547 1.70255,-6.56482 0.32146,-0.66675 0.54818,-0.9553 1.52281,-1.93793 1.36206,-1.37327 1.6548,-1.52753 2.74076,-1.44454 2.09591,0.16014 3.33921,1.42849 3.78893,3.86534 0.24121,1.30705 0.60657,2.46405 1.12272,3.55533 l 0.49128,1.03865 0.8749,0.43979 0.87491,0.43981 0.86724,-0.0366 c 0.72569,-0.0306 0.96942,-0.0855 1.49353,-0.33601 0.82587,-0.39476 1.08135,-0.65742 1.55807,-1.602 l 0.39846,-0.78952 -0.21754,-1.349 c -0.2518,-1.56136 -0.83948,-4.01417 -1.21206,-5.05877 -0.40884,-1.14625 -1.25893,-2.79704 -1.76295,-3.42347 -0.25462,-0.31646 -0.49071,-0.64987 -0.52466,-0.74095 -0.0339,-0.0911 -0.21297,-0.22877 -0.39783,-0.30603 -0.18487,-0.0772 -0.56618,-0.31358 -0.84734,-0.52521 -1.24626,-0.93808 -2.98695,-1.70953 -4.60639,-2.04148 -0.67361,-0.13808 -1.56842,-0.19601 -2.44364,-0.17858 z m -133.661347,0.26145 -0.86721,0.0324 c -0.738933,0.0276 -0.959857,0.0775 -1.493547,0.3376 -0.344472,0.16789 -0.794055,0.45135 -0.999059,0.62993 l -0.372741,0.32474 -0.426153,2.30891 c -1.108232,6.0044 -2.338033,10.87521 -4.658039,18.44883 -1.74808,5.70658 -2.928842,9.77977 -4.385545,15.12814 -0.709433,2.60476 -0.735398,2.90906 -0.338836,3.96895 0.393916,1.05287 0.680209,1.37815 1.63503,1.8577 0.734848,0.36907 0.955318,0.43623 1.425305,0.43424 1.074854,-0.004 1.970694,-0.33868 2.676618,-0.99828 0.389922,-0.36433 0.466924,-0.52192 0.947404,-1.93885 0.650593,-1.9186 1.172278,-3.77198 1.893533,-6.72704 0.3081,-1.26233 0.585542,-2.32051 0.616524,-2.3515 0.0487,-0.0486 5.691662,0.44677 7.187084,0.63099 l 0.527798,0.065 0.412261,1.39716 c 0.226743,0.76846 0.998716,3.15733 1.715475,5.30858 1.06479,3.19572 1.351151,3.95541 1.565232,4.15198 1.165136,1.06979 2.63877,1.31748 4.012762,0.67451 0.355198,-0.16622 0.774779,-0.39403 0.93239,-0.50626 0.317986,-0.22641 1.146497,-1.77264 1.146497,-2.13963 0,-0.12282 -0.346708,-1.38402 -0.770491,-2.80266 -1.848702,-6.18877 -3.123966,-11.04173 -5.675326,-21.59726 -0.845441,-3.49777 -2.001426,-8.24581 -2.568861,-10.55115 l -1.031639,-4.19154 -0.443103,-0.40959 c -0.261584,-0.2418 -0.897825,-0.63004 -1.553233,-0.94775 z m 115.324427,0.30911 c -0.83575,-0.004 -1.66518,0.23623 -2.28461,0.66243 -0.36837,0.25344 -0.53115,0.47067 -0.89536,1.195 l -0.44511,0.88523 0.10877,1.54171 c 0.0793,1.12419 0.0819,2.82049 0.009,6.26325 -0.0547,2.59684 -0.13285,6.98776 -0.17367,9.75762 -0.0475,3.22628 -0.10988,5.07175 -0.17344,5.1353 -0.16057,0.16058 -2.40985,-4.6455 -4.86002,-10.38451 -4.65362,-10.9002 -5.19427,-12.10447 -5.6145,-12.50607 -0.22183,-0.21198 -0.48736,-0.57558 -0.59007,-0.80795 -0.17204,-0.38924 -0.26223,-0.45942 -1.14536,-0.89131 -1.04333,-0.5102 -1.41939,-0.56688 -2.39226,-0.36044 -1.1368,0.24118 -1.88871,0.8346 -2.41617,1.90688 l -0.31067,0.63152 0.0309,4.62671 c 0.0279,4.16743 0.0733,5.30102 0.45758,11.4199 l 0.42662,6.7932 6.2e-4,6.40779 c 6.1e-4,3.8777 0.0396,6.65506 0.0991,7.03409 0.10503,0.66932 0.52421,1.61774 0.90232,2.04159 0.12707,0.14246 0.58819,0.43856 1.02469,0.65802 0.7241,0.36407 0.85832,0.39904 1.53225,0.39904 0.87993,0 1.66185,-0.24439 2.2712,-0.70986 0.30842,-0.23559 0.51847,-0.52766 0.81713,-1.13616 l 0.40201,-0.81901 -0.0538,-8.09406 c -0.0296,-4.45171 -0.0799,-8.41923 -0.11174,-8.8167 l -0.0579,-0.72268 2.88908,5.74036 c 3.17193,6.30242 3.77756,7.5563 5.37048,11.1184 l 1.07555,2.40518 0.56759,0.31682 c 1.67046,0.93242 3.31103,1.18195 4.60003,0.69969 0.86715,-0.32445 1.28023,-0.70231 1.71673,-1.57046 l 0.3914,-0.77849 -0.0167,-6.74953 c -0.01,-4.06078 0.0244,-7.2869 0.0864,-8.09853 0.12059,-1.5775 0.34556,-13.5545 0.33212,-17.68161 -0.01,-3.04544 -0.0928,-3.81734 -0.55775,-5.19147 -0.43168,-1.27596 -0.49901,-1.36209 -1.45583,-1.86319 -0.79461,-0.41616 -0.92501,-0.45449 -1.55722,-0.4577 z M 15.596631,126.742 c -0.826323,0 -1.680615,0.26505 -2.28544,0.70902 -0.532545,0.39093 -0.791323,0.87755 -1.236962,2.32626 l -0.266765,0.86721 -0.03375,4.19157 c -0.02934,3.64894 0.0043,4.9508 0.260787,10.05681 0.1797,3.5792 0.295145,6.92174 0.296192,8.57581 0,1.49079 0.04459,3.10079 0.097,3.57777 0.05237,0.47697 0.136712,2.34148 0.187387,4.14336 0.09678,3.43995 0.23217,4.8573 0.637332,6.67104 0.406056,1.81777 0.361543,1.74311 1.34712,2.26034 0.473589,0.24855 0.969468,0.47228 1.101959,0.49717 0.453375,0.0852 1.536602,-0.0345 2.049798,-0.22648 h 2.4e-5 c 0.858464,-0.32119 1.255595,-0.68303 1.711524,-1.55937 l 0.409499,-0.78714 -0.05599,-3.23507 c -0.03081,-1.77928 -0.132265,-4.31909 -0.225493,-5.64401 -0.107708,-1.53096 -0.17132,-3.58538 -0.174517,-5.63688 l -0.0049,-3.22799 0.915417,0.0284 c 0.503456,0.0156 2.086121,0.11314 3.517037,0.21667 1.430896,0.10352 2.926863,0.19912 3.324338,0.21245 l 0.722689,0.0243 0.06158,3.6134 c 0.06375,3.7403 0.201371,5.81464 0.619035,9.33055 0.253186,2.13127 0.677269,4.8852 0.77718,5.04685 0.03148,0.051 0.493049,0.30583 1.025612,0.56628 0.867823,0.42438 1.035707,0.47352 1.617163,0.47352 0.789615,0 1.716002,-0.27103 2.340746,-0.68483 0.383491,-0.25403 0.531314,-0.44805 0.898762,-1.17968 l 0.439752,-0.87563 -0.05047,-2.60466 c -0.04514,-2.32849 -0.126177,-3.39623 -0.493876,-6.50716 -0.02818,-0.23849 -0.09347,-2.58 -0.145086,-5.20332 -0.09073,-4.61126 -0.242209,-8.14033 -0.539773,-12.57465 -0.07899,-1.17711 -0.142396,-3.51645 -0.14258,-5.26017 0,-3.56239 -0.06459,-4.02159 -0.743864,-5.31796 -0.357727,-0.68267 -0.38082,-0.70432 -1.231804,-1.15571 l -0.867204,-0.45999 -0.867211,0.0299 c -0.734688,0.0254 -0.962919,0.0757 -1.493522,0.32935 -0.8072,0.38583 -1.079761,0.65684 -1.513828,1.50541 l -0.354653,0.69339 0.02842,4.04755 c 0.02211,3.13415 0.0763,4.62143 0.240341,6.59056 l 0.211845,2.54303 -1.450038,-0.06 c -0.797529,-0.033 -1.883653,-0.13241 -2.41362,-0.22087 -0.719473,-0.12009 -1.454988,-0.15526 -2.903495,-0.13889 l -1.939921,0.0219 -0.05703,-0.70656 c -0.03136,-0.38861 -0.08597,-2.69059 -0.121288,-5.11552 -0.04906,-3.36736 -0.03491,-4.61941 0.05991,-5.29966 0.25887,-1.85755 0.118434,-2.87881 -0.551662,-4.01217 -0.345477,-0.58429 -0.408746,-0.63781 -1.224528,-1.03581 -0.755545,-0.36864 -0.939171,-0.41972 -1.509038,-0.41972 z m 62.812701,0.70156 c -0.764054,0.0114 -1.563205,0.1027 -2.410539,0.27122 -2.341475,0.46567 -4.156107,1.44465 -6.112383,3.29764 -0.58167,0.55095 -1.103692,1.01877 -1.160002,1.03958 -0.261063,0.0965 -1.769391,2.9544 -2.505249,4.74684 -1.262358,3.07492 -2.110671,6.67656 -2.495687,10.59542 -0.302587,3.08013 0.191742,8.04758 1.083068,10.883 0.546689,1.73917 1.85397,4.05797 2.892041,5.12982 0.872546,0.90094 3.880864,3.01415 5.071622,3.56262 0.775643,0.35728 1.835165,0.69742 2.541842,0.81602 0.754204,0.12658 2.603904,0.10765 3.696485,-0.0379 2.370295,-0.3156 4.021472,-0.94341 5.907844,-2.24627 0.415153,-0.28674 0.87722,-0.56401 1.026758,-0.61613 0.165091,-0.0576 0.320969,-0.21328 0.396832,-0.39646 0.06874,-0.16592 0.238607,-0.4341 0.377488,-0.59597 0.954,-1.11189 2.273507,-4.10928 2.844361,-6.4612 0.243103,-1.0016 0.226632,-2.35174 -0.03834,-3.14209 -0.385635,-1.15033 -0.663738,-1.4781 -1.676144,-1.97549 -0.874512,-0.42966 -0.906088,-0.43718 -1.66232,-0.39574 -0.987904,0.0541 -1.767516,0.34944 -2.308459,0.87441 -0.352092,0.34171 -0.461062,0.55184 -0.756574,1.45913 -0.189874,0.58296 -0.497839,1.65861 -0.684338,2.39032 -0.383239,1.50348 -0.803255,2.44614 -1.27413,2.85958 -0.935815,0.82166 -3.233506,1.48559 -4.431222,1.28043 -0.930449,-0.15938 -2.646089,-1.15982 -3.650416,-2.12864 -1.324689,-1.27786 -1.629622,-2.06346 -2.176066,-5.60616 -0.277252,-1.79761 -0.299389,-2.1054 -0.245908,-3.42071 0.170027,-4.18249 1.061507,-8.03509 2.609906,-11.27884 0.537495,-1.12605 0.659561,-1.30757 1.166184,-1.73443 0.311211,-0.26223 0.808413,-0.70293 1.104929,-0.97937 0.78393,-0.73084 1.483165,-1.02767 2.522994,-1.07111 0.616922,-0.0258 0.972187,0.01 1.345932,0.13365 1.057967,0.35141 2.009205,1.7257 2.340813,3.38179 0.234338,1.17032 0.590246,2.46564 0.984046,3.58143 l 0.350953,0.99439 0.968303,0.48591 0.968285,0.48591 0.824952,-0.0394 c 0.672381,-0.0322 0.940488,-0.0946 1.449603,-0.33785 0.836039,-0.39939 1.106566,-0.682 1.562427,-1.63206 l 0.385065,-0.80248 -0.111482,-1.27884 c -0.293386,-3.36619 -1.220643,-6.15882 -2.713419,-8.17213 -0.302948,-0.40856 -0.565989,-0.8242 -0.584561,-0.92361 -0.01868,-0.0994 -0.16375,-0.24648 -0.322593,-0.32679 -0.158843,-0.0803 -0.527252,-0.32136 -0.818746,-0.53567 -2.015508,-1.48187 -3.992021,-2.16782 -6.284169,-2.13381 z m -28.396568,17.12458 c 0.07176,0 1.630124,6.22353 1.630124,6.51013 0,0.063 -0.867706,0.0257 -2.168053,-0.0931 -1.075399,-0.0982 -1.153957,-0.11912 -1.12281,-0.29835 0.0185,-0.106 0.261902,-1.03826 0.541103,-2.07168 0.279194,-1.03344 0.629534,-2.3668 0.778521,-2.96301 0.148987,-0.59621 0.302489,-1.08402 0.341115,-1.08402 z m 99.427206,30.41872 c -2.60517,-0.0658 -2.71285,-0.0401 -3.09137,0.73903 -0.42196,0.86852 0.057,1.8518 1.02016,2.09432 0.41187,0.10372 0.42493,0.11886 0.47799,0.55484 0.19724,1.62026 0.25894,3.98235 0.29111,11.14386 0.0221,4.91471 0.0784,8.52277 0.14325,9.18552 0.0588,0.60031 0.0857,1.12579 0.0597,1.16774 -0.0259,0.042 -0.27103,0.0813 -0.54467,0.0875 -0.6684,0.0151 -1.14165,0.26281 -1.40734,0.73674 -0.49373,0.88074 -0.0301,1.95667 0.928,2.15364 0.53209,0.10938 4.06174,0.01 4.76785,-0.13425 0.80106,-0.16362 1.09129,-0.33963 1.27158,-0.77114 0.17858,-0.42741 0.17253,-0.81703 -0.0202,-1.29871 -0.20678,-0.5168 -0.6861,-0.76855 -1.46328,-0.76855 h -0.56774 l -0.0688,-1.61401 c -0.0379,-0.88769 -0.0868,-5.11385 -0.10875,-9.39145 -0.0304,-5.93696 -0.0743,-8.13583 -0.18502,-9.29178 -0.0798,-0.83288 -0.12813,-1.53128 -0.10741,-1.552 0.0207,-0.0207 0.29742,-0.0483 0.61487,-0.0613 0.92255,-0.0377 1.46361,-0.55261 1.46433,-1.3935 6.2e-4,-0.63248 -0.24068,-1.04739 -0.75984,-1.307 -0.41391,-0.20697 -0.59936,-0.2261 -2.71444,-0.27954 z m 31.85194,0.23969 c -2.95528,0.0358 -3.05857,0.0592 -3.44385,0.78023 -0.2101,0.39321 -0.22,0.52606 -0.28204,3.78005 -0.0353,1.85488 -0.11441,5.90913 -0.17566,9.00943 -0.12712,6.43318 -0.12334,11.32191 0.009,11.93251 0.1479,0.68123 0.42578,1.1284 0.81637,1.31374 0.43976,0.20868 1.41744,0.20908 2.13366,6.1e-4 0.43701,-0.12704 0.75448,-0.13365 2.21966,-0.0461 1.653,0.0988 5.46386,0.45349 5.66035,0.5269 0.26766,0.1 1.00989,0.026 1.36747,-0.13639 0.71955,-0.32669 1.03554,-1.40126 0.61488,-2.09112 -0.164,-0.26896 -0.28159,-0.32605 -1.0355,-0.50287 -1.8179,-0.42635 -5.33077,-0.78364 -7.70505,-0.78364 h -1.16083 l -0.0461,-2.09576 c -0.0254,-1.15268 -0.0214,-3.37492 0.009,-4.93833 l 0.055,-2.84256 0.77085,-0.0662 c 0.42397,-0.0364 2.05001,-0.0621 3.61341,-0.0572 2.73648,0.009 2.85777,0.001 3.25077,-0.20007 0.44772,-0.22935 0.79625,-0.77306 0.79625,-1.2422 0,-0.14987 -0.0976,-0.46595 -0.21681,-0.70242 -0.19542,-0.38754 -0.27856,-0.45152 -0.84312,-0.64867 -0.6115,-0.21354 -0.69365,-0.21749 -3.46888,-0.16687 -1.5634,0.0285 -3.05933,0.0619 -3.32432,0.0742 l -0.48179,0.0224 0.007,-0.62636 c 0.004,-0.34447 0.0431,-2.13311 0.0878,-3.97474 l 0.0813,-3.3484 h 1.98605 c 1.09233,0 2.78671,0.065 3.76526,0.14459 1.88445,0.15317 2.23575,0.13286 2.82471,-0.16329 0.3818,-0.19199 0.73307,-0.76738 0.73741,-1.20791 0.004,-0.38312 -0.30112,-0.9921 -0.56386,-1.12613 -0.85219,-0.43477 -3.89547,-0.66802 -8.058,-0.61765 z M 22.376397,175.4523 c -0.492982,0.0915 -0.736538,0.36821 -0.934375,0.86807 -0.176251,0.44537 -0.193752,0.80748 -0.246571,5.10457 -0.03124,2.54387 -0.09031,4.67942 -0.131236,4.74563 -0.04092,0.0662 -0.24744,0.12039 -0.458942,0.12039 -0.532839,0 -0.916783,0.22556 -1.144849,0.67263 -0.261792,0.51313 -0.252414,1.13925 0.02315,1.54625 0.203307,0.3003 0.777449,0.67816 1.197233,0.78794 0.172306,0.0451 0.193959,0.21265 0.303658,2.35104 0.06496,1.2664 0.186407,2.95296 0.26989,3.7479 0.08346,0.79495 0.158224,2.29092 0.166101,3.32435 0.01348,1.75044 0.02922,1.9068 0.231692,2.2857 0.218418,0.40873 0.592115,0.69037 0.925616,0.69754 0.09866,0.002 0.575643,-0.14456 1.059933,-0.32594 0.484314,-0.18138 1.422542,-0.46497 2.085,-0.63023 2.54219,-0.63415 3.429063,-1.0255 4.982706,-2.19871 1.419535,-1.07194 1.841419,-1.53799 2.610317,-2.88375 1.566078,-2.74109 2.248633,-5.45284 2.10503,-8.36298 -0.130274,-2.64034 -0.896845,-5.20187 -2.232388,-7.45959 -0.590657,-0.99846 -1.051952,-1.4636 -2.042747,-2.05977 -1.540553,-0.92696 -3.045892,-1.42269 -6.338286,-2.08733 -1.19553,-0.24134 -1.93793,-0.33518 -2.430918,-0.24371 z m 74.553672,0.24145 c -0.378039,0.003 -1.050034,0.35177 -1.148162,0.59535 -0.04906,0.12185 -0.184674,0.74189 -0.301331,1.37785 -0.537813,2.93226 -1.520242,6.96968 -2.403305,9.87664 -1.917262,6.31136 -2.571941,8.55573 -3.422926,11.73437 -0.407765,1.52311 -0.415997,1.5821 -0.282434,2.03181 0.190554,0.64169 0.749683,1.07287 1.39115,1.07287 0.358529,0 1.020166,-0.3209 1.14298,-0.55435 0.244653,-0.46505 0.948249,-2.83698 1.475685,-4.97467 l 0.591502,-2.39738 0.63569,0.061 c 0.349654,0.0336 1.576736,0.14951 2.726834,0.25769 3.120408,0.2935 2.885788,0.22434 3.094768,0.91211 0.3457,1.13776 1.82583,5.69408 2.01126,6.19132 0.30484,0.81746 1.03029,1.08742 1.88256,0.70053 0.42277,-0.19192 0.79594,-0.66895 0.79658,-1.01827 0,-0.10765 -0.21884,-0.9315 -0.48678,-1.83078 -0.8776,-2.94543 -2.07377,-7.44338 -3.02297,-11.36718 -1.885188,-7.79292 -2.875984,-11.75846 -2.966198,-11.87178 -0.153827,-0.1932 -1.457932,-0.79938 -1.714903,-0.79711 z m -55.638768,0.0157 c -1.880094,0.0315 -2.067548,0.0507 -2.532653,0.25927 -0.76896,0.34487 -1.080122,1.11654 -0.759582,1.88372 0.112529,0.26928 0.144467,2.23419 0.189531,11.65476 0.04778,9.98701 0.07196,11.36525 0.203926,11.62043 0.298593,0.57744 1.346569,0.85805 1.980372,0.5303 0.333814,-0.17262 0.604733,-0.66622 0.755135,-1.37585 0.125325,-0.5912 0.132375,-3.56331 0.0185,-7.77614 -0.04294,-1.5899 -0.0632,-2.91718 -0.04496,-2.94954 0.01825,-0.0323 0.370364,6.1e-4 0.782509,0.0727 0.484749,0.0851 1.039425,0.11005 1.570623,0.0707 0.637748,-0.0472 0.845257,-0.0312 0.928764,0.0718 0.107372,0.13245 1.302577,3.37437 2.251377,6.10677 0.517391,1.49006 1.712645,4.58475 2.150321,5.56759 0.207625,0.46619 0.315456,0.58829 0.661594,0.74929 0.456199,0.21219 0.834305,0.19749 1.362079,-0.053 0.209475,-0.0994 0.41288,-0.30989 0.550958,-0.57018 l 0.218871,-0.41259 -0.874212,-2.59237 c -0.480816,-1.42582 -1.395823,-4.045 -2.033369,-5.82039 -0.63754,-1.77538 -1.17278,-3.29096 -1.189435,-3.36793 -0.02119,-0.0986 0.249333,-0.24098 0.915827,-0.48179 1.146815,-0.41433 1.848292,-0.9308 2.378601,-1.7513 0.734578,-1.13654 0.960408,-2.09909 0.957897,-4.0829 -0.0037,-3.04155 -1.036614,-5.20002 -2.966287,-6.1994 -1.015989,-0.52618 -1.518875,-0.65686 -3.622061,-0.94134 -1.585428,-0.21446 -2.089429,-0.24229 -3.854299,-0.21272 z m 131.300169,0.21178 c -0.7744,-0.14633 -1.61192,0.54092 -1.59368,1.30775 0.066,2.77546 0.0173,5.85867 -0.24193,15.32516 l -0.0673,2.4571 -1.02582,-2.03066 c -1.50343,-2.97613 -2.14663,-4.38752 -4.61689,-10.13051 -1.6197,-3.76554 -2.31586,-5.2791 -2.54532,-5.53388 -0.17372,-0.19288 -0.34399,-0.43929 -0.37837,-0.5476 -0.0759,-0.23911 -0.77879,-0.59603 -1.16804,-0.59312 -0.53371,0.004 -1.0564,0.32457 -1.27486,0.78191 -0.19775,0.41399 -0.19952,0.47891 -0.11613,4.22655 0.0466,2.09337 0.19547,5.45383 0.33085,7.46771 0.20369,3.02995 0.24625,4.38355 0.24677,7.84681 6.2e-4,3.98762 0.01,4.20401 0.19338,4.58333 0.34346,0.70949 1.20248,1.0036 1.98108,0.67828 0.2575,-0.10759 0.39273,-0.26077 0.57412,-0.6504 l 0.23728,-0.50966 4.5e-4,-3.95067 c 4.6e-4,-3.20782 -0.0447,-4.61196 -0.23948,-7.46771 -0.13197,-1.93438 -0.23651,-3.66881 -0.2323,-3.8543 l 0.008,-0.33725 0.19332,0.43362 c 0.10634,0.23848 0.54659,1.23577 0.97837,2.2162 0.43177,0.98044 1.69711,3.60377 2.81186,5.82963 1.11474,2.22585 2.38796,4.8492 2.82938,5.82964 0.44143,0.98044 0.8669,1.88423 0.94549,2.00843 0.25562,0.40397 1.46942,0.81374 2.10197,0.70962 0.15899,-0.0262 0.4079,-0.10732 0.55313,-0.18034 v 0 c 0.14522,-0.073 0.35116,-0.30356 0.45767,-0.51234 0.18343,-0.35954 0.19356,-0.56194 0.19161,-3.82825 -0.001,-1.89674 0.0708,-6.83076 0.15995,-10.96449 0.16841,-7.81432 0.1542,-8.48371 -0.20532,-9.66433 -0.16891,-0.55467 -0.48907,-0.83287 -1.08894,-0.94623 z m -45.2007,0.15797 c -0.33816,-0.12635 -0.73187,-0.12201 -1.1146,0.0379 -0.41411,0.17303 -0.61377,0.47991 -0.83775,1.28763 -0.15458,0.5575 -0.17824,1.01041 -0.17725,3.39169 6.1e-4,1.51155 0.0671,3.9407 0.14767,5.39812 0.0806,1.45739 0.18898,4.18912 0.24087,6.0705 0.20575,7.46047 0.27154,8.44414 0.66172,9.89315 0.18776,0.69727 1.14391,0.97107 1.94482,0.55692 0.15291,-0.0791 0.37165,-0.32717 0.48608,-0.55131 0.20072,-0.39312 0.20582,-0.48077 0.14418,-2.47922 -0.0352,-1.13942 -0.10502,-2.78713 -0.1553,-3.66157 -0.0503,-0.87444 -0.1095,-2.63953 -0.13164,-3.9224 l -0.0402,-2.33252 0.41674,-0.0625 c 0.22922,-0.0344 1.16711,-0.0113 2.08421,0.0514 1.30847,0.0894 4.20875,0.27023 4.63044,0.28865 0.0397,0.002 0.0723,0.88861 0.0723,1.97082 0,2.75078 0.23624,5.98675 0.63364,8.67982 0.18761,1.27138 0.1887,1.27403 0.62218,1.49518 0.46479,0.23712 0.89211,0.23975 1.4009,0.009 0.32087,-0.14574 0.43297,-0.27255 0.61564,-0.69647 0.2114,-0.49061 0.21996,-0.59294 0.1602,-1.91548 -0.0347,-0.76845 -0.12946,-1.96087 -0.21054,-2.64983 -0.0834,-0.70852 -0.18521,-2.84319 -0.23442,-4.91424 -0.0825,-3.47234 -0.16935,-5.3893 -0.39214,-8.6603 -0.0537,-0.78841 -0.0913,-2.21931 -0.0835,-3.17978 0.0147,-1.82087 -0.0168,-2.09763 -0.30414,-2.67168 -0.20732,-0.41419 -1.00353,-0.815 -1.42426,-0.71698 -0.57388,0.13371 -0.80005,0.28495 -0.99965,0.66848 -0.197,0.37852 -0.20504,0.5067 -0.18473,2.94919 0.0117,1.40441 0.0905,3.40763 0.17506,4.4516 0.0846,1.04395 0.12556,1.97179 0.091,2.06182 -0.0567,0.14771 -0.19382,0.15724 -1.40223,0.0974 -0.73667,-0.0365 -1.59195,-0.10768 -1.90062,-0.15824 -0.30868,-0.0505 -1.32617,-0.0921 -2.26111,-0.0925 l -1.69991,-6.1e-4 -0.0827,-1.8067 c -0.10551,-2.3046 -0.10326,-5.58788 0.005,-6.77346 0.0753,-0.82746 0.0638,-0.96464 -0.11416,-1.36699 -0.16052,-0.3629 -0.44315,-0.61995 -0.78132,-0.7463 z m -42.100978,0.0442 c -0.507039,-0.0848 -1.019187,-0.0522 -1.323617,0.13347 -0.282576,0.17232 -0.32745,0.30318 -1.181038,3.44441 -0.488007,1.79591 -1.19213,4.37102 -1.564711,5.72244 -0.372581,1.35141 -0.935655,3.47216 -1.251289,4.71277 -0.315634,1.24062 -0.590951,2.27274 -0.611826,2.29361 -0.128841,0.12885 -1.271846,-4.39596 -1.940264,-7.6809 -0.523779,-2.57416 -1.05475,-4.82488 -1.55711,-6.6005 -0.217756,-0.76968 -0.295622,-0.91427 -0.692392,-1.28562 -0.860748,-0.80562 -1.469885,-0.94496 -2.197253,-0.50261 -0.598099,0.36371 -0.650483,0.62902 -0.724043,3.66721 -0.08027,3.3141 -0.243213,7.7757 -0.320289,8.76855 -0.03087,0.39747 -0.02168,3.32433 0.02034,6.50413 l 0.07635,5.78145 0.22439,0.31462 c 0.597205,0.83728 1.917079,0.83394 2.429319,-0.006 0.181752,-0.2981 0.188116,-0.53301 0.188459,-6.97336 0,-3.66568 0.02842,-6.73808 0.06278,-6.82755 0.03632,-0.0948 0.292002,0.75669 0.612377,2.03973 0.30247,1.2113 0.924158,3.52488 1.381502,5.14128 0.457344,1.61639 1.040724,3.76277 1.296421,4.7697 0.446459,1.75822 0.477625,1.83939 0.786551,2.0476 0.224917,0.1516 0.463733,0.21681 0.794013,0.21681 0.65632,0 1.010991,-0.20446 1.129523,-0.65108 0.136963,-0.51617 0.699167,-3.59544 1.209373,-6.62393 0.241051,-1.43091 0.546235,-3.07861 0.678157,-3.66157 0.302127,-1.33512 0.913383,-3.61521 1.020394,-3.80614 0.09884,-0.17637 0.08882,-0.5805 0.177072,7.13045 0.06865,5.99857 0.07835,6.23719 0.278514,6.84963 0.22398,0.68538 0.370302,0.86606 0.886805,1.09508 0.351522,0.15587 0.824223,0.12724 1.241115,-0.0752 0.12772,-0.062 0.321747,-0.23371 0.431146,-0.38154 0.197016,-0.26617 0.198523,-0.32429 0.153213,-5.97415 -0.05102,-6.36403 -0.04024,-9.39425 0.05139,-14.43598 0.06904,-3.79964 0.04202,-4.06148 -0.472149,-4.57563 -0.284057,-0.28406 -0.786006,-0.48627 -1.29307,-0.57107 z m 30.552808,0.33905 c -1.19859,0 -2.09852,0.21017 -3.19589,0.74635 -1.23549,0.60366 -2.60603,1.89604 -3.23481,3.05032 -0.96762,1.7763 -1.74878,4.18867 -2.18719,6.75449 -0.16834,0.98522 -0.214,1.63321 -0.2139,3.03525 0,3.58566 0.65035,6.16191 2.01388,7.98058 0.48632,0.64867 2.26212,1.98677 3.39786,2.56035 1.05774,0.53419 2.437,0.66914 4.01908,0.39325 1.08179,-0.18864 2.06941,-0.57473 2.92475,-1.14337 0.66859,-0.44447 0.81414,-0.5898 1.43584,-1.43357 0.65871,-0.894 1.42446,-2.96232 1.52443,-4.11751 0.0686,-0.7924 -0.18477,-1.42836 -0.68004,-1.70707 -0.72914,-0.41033 -1.67533,-0.21135 -1.93353,0.40662 -0.0792,0.18951 -0.29527,0.91291 -0.4802,1.60754 -0.36263,1.36205 -0.79482,2.29639 -1.19159,2.57611 -0.91782,0.64703 -2.17811,1.01368 -3.25565,0.94713 -0.62861,-0.0388 -0.78772,-0.0953 -1.68626,-0.59856 -1.06931,-0.59891 -1.71021,-1.19181 -2.19148,-2.0273 -0.3734,-0.64824 -0.53677,-1.2608 -0.81866,-3.06966 -0.21734,-1.39464 -0.22995,-1.64266 -0.14441,-2.84256 0.20692,-2.90273 0.73447,-5.07091 1.77338,-7.28874 0.37098,-0.79197 0.48364,-0.93592 1.29845,-1.65882 1.14518,-1.01601 1.63294,-1.21829 2.80704,-1.16413 0.68076,0.0314 0.90372,0.0838 1.26966,0.29821 0.86617,0.50761 1.35997,1.34487 1.71073,2.90048 0.11829,0.52465 0.31128,1.24011 0.42888,1.5899 0.18188,0.54103 0.27013,0.66898 0.59102,0.85683 0.28776,0.16845 0.4845,0.21192 0.82946,0.18328 0.57695,-0.0479 0.89,-0.25586 1.14887,-0.76328 0.19656,-0.38529 0.20085,-0.45027 0.0899,-1.36559 -0.28549,-2.3556 -0.92019,-3.88054 -2.10005,-5.04559 -1.15607,-1.14157 -2.39112,-1.66094 -3.94958,-1.66094 z m -74.609073,2.16893 c 0.286477,-0.0909 4.248539,0.22705 4.88072,0.39171 0.303677,0.0791 0.819794,0.27155 1.146931,0.42768 0.525764,0.25092 0.62894,0.34838 0.889151,0.8399 0.487647,0.92112 0.60186,1.46489 0.601266,2.86202 0,0.69259 -0.0441,1.41611 -0.09735,1.60783 -0.157845,0.56818 -0.500014,0.98345 -1.010311,1.22606 -1.246015,0.59237 -4.476035,0.94912 -5.822213,0.64304 -0.340435,-0.0774 -0.654152,-0.1961 -0.697115,-0.2638 -0.04294,-0.0677 -0.07876,-1.82207 -0.07958,-3.89861 -0.0024,-3.67337 0.0037,-3.77717 0.188501,-3.83583 z m -16.906239,0.0473 c 0.06464,0 0.50261,0.0665 0.973283,0.14777 1.732792,0.29924 3.147034,0.80139 4.325376,1.53581 0.596041,0.3715 0.730382,0.51189 1.080312,1.12887 0.567563,1.00066 1.066045,2.26299 1.400729,3.54713 0.238767,0.91613 0.296811,1.35853 0.334959,2.55349 0.05446,1.70418 -0.0924,2.74081 -0.605394,4.27405 -0.879779,2.62943 -1.994467,3.97023 -4.236263,5.09555 -0.496859,0.24942 -2.834273,0.98884 -3.125859,0.98884 -0.05537,0 -0.100731,-0.10356 -0.100731,-0.2301 0,-0.12656 -0.09019,-1.28647 -0.200416,-2.57758 -0.110226,-1.29111 -0.207784,-3.05415 -0.216819,-3.91788 l -0.01642,-1.57043 0.578381,-0.0323 c 0.318121,-0.0178 0.73832,-0.0991 0.933805,-0.18082 0.646832,-0.27025 0.941364,-1.25824 0.610919,-2.04913 -0.165097,-0.3951 -0.68865,-0.66923 -1.508444,-0.78984 -0.475554,-0.07 -0.516417,-0.0959 -0.495425,-0.31417 0.01256,-0.13085 0.05157,-1.89646 0.08663,-3.92358 0.04845,-2.80069 0.092,-3.68566 0.181317,-3.68566 z m 72.918752,4.56699 c 0.06197,-0.062 2.093811,8.2733 2.093811,8.58955 0,0.15635 -0.142464,0.16076 -1.204497,0.0375 -0.37098,-0.0431 -1.184183,-0.11713 -1.807144,-0.16461 -0.622968,-0.0475 -1.151838,-0.1055 -1.175292,-0.12895 -0.02346,-0.0235 0.065,-0.40989 0.196606,-0.85873 0.40352,-1.37634 1.102118,-4.10151 1.489669,-5.81118 0.202627,-0.89384 0.385702,-1.64243 0.406847,-1.66356 z m -39.637765,15.96164 c -0.281461,-0.0111 -0.55954,0.0353 -0.765952,0.14204 -0.579502,0.29967 -0.834238,1.26223 -0.513128,1.93891 0.322886,0.68044 1.429935,0.95041 2.11959,0.51687 0.246662,-0.15507 0.613608,-0.87616 0.613608,-1.20577 0,-0.46791 -0.28358,-0.97254 -0.667867,-1.18853 -0.219968,-0.12363 -0.504797,-0.19236 -0.786251,-0.20352 z" /><g
       id="g1"
       transform="translate(-5920.1778,2418.1217)" /></g></svg>
