<?xml version="1.0" standalone="no"?>
<!DOCTYPE svg PUBLIC "-//W3C//DTD SVG 20010904//EN"
 "http://www.w3.org/TR/2001/REC-SVG-20010904/DTD/svg10.dtd">
<svg version="1.0" xmlns="http://www.w3.org/2000/svg"
 width="654.000000pt" height="654.000000pt" viewBox="0 0 654.000000 654.000000"
 preserveAspectRatio="xMidYMid meet">
<metadata>
Created by potrace 1.14, written by Peter Selinger 2001-2017
</metadata>
<g transform="translate(0.000000,654.000000) scale(0.100000,-0.100000)"
fill="#000000" stroke="none">
<path d="M0 3270 l0 -3270 3270 0 3270 0 0 3270 0 3270 -3270 0 -3270 0 0
-3270z m3525 2805 c173 -50 281 -113 413 -239 130 -125 216 -269 264 -447 20
-73 23 -106 22 -249 -1 -150 -3 -173 -28 -255 -105 -346 -367 -596 -708 -674
-122 -28 -212 -34 -324 -21 -529 63 -902 523 -853 1051 39 425 358 772 784
855 113 22 319 12 430 -21z m-974 -1929 c75 -51 69 107 69 -1849 l0 -1754 -22
-33 c-39 -57 -72 -75 -138 -75 -66 0 -99 18 -137 75 l-23 33 0 973 c0 536 -3
974 -8 974 -4 0 -34 -20 -66 -44 -83 -62 -214 -124 -325 -154 -133 -35 -334
-37 -464 -4 -176 44 -317 122 -446 246 -125 121 -206 253 -258 423 -25 82 -27
101 -27 268 0 167 2 186 27 268 54 173 150 331 225 368 75 37 163 4 201 -75
36 -72 28 -114 -39 -226 -131 -218 -127 -479 12 -685 272 -408 879 -369 1097
71 62 125 63 135 70 654 6 449 7 477 26 504 47 69 156 90 226 42z m1609 9 c16
-8 39 -29 52 -47 l23 -33 6 -475 c6 -405 9 -484 24 -535 113 -400 550 -591
914 -400 317 167 432 581 247 885 -18 30 -41 69 -50 87 -61 121 62 275 188
233 78 -25 188 -198 242 -376 36 -120 45 -329 19 -455 -39 -196 -122 -349
-269 -494 -157 -156 -306 -232 -526 -271 -236 -41 -511 25 -715 171 -35 25
-66 45 -69 45 -3 0 -6 -438 -6 -974 l0 -973 -22 -33 c-39 -57 -72 -75 -138
-75 -66 0 -99 18 -137 75 l-23 33 0 1754 c0 1956 -6 1798 69 1849 42 28 125
33 171 9z"/>
<path d="M3115 5764 c-214 -52 -402 -237 -461 -454 -28 -102 -23 -253 10 -357
108 -334 472 -519 803 -408 190 64 327 198 401 393 23 60 26 82 26 202 1 116
-2 145 -23 208 -67 204 -245 368 -453 417 -79 18 -224 18 -303 -1z"/>
</g>
</svg>
