<?xml version="1.0" standalone="no"?>
<!DOCTYPE svg PUBLIC "-//W3C//DTD SVG 20010904//EN"
 "http://www.w3.org/TR/2001/REC-SVG-20010904/DTD/svg10.dtd">
<svg version="1.0" xmlns="http://www.w3.org/2000/svg"
 width="180.000000pt" height="180.000000pt" viewBox="0 0 180.000000 180.000000"
 preserveAspectRatio="xMidYMid meet">
<metadata>
Created by potrace 1.14, written by Peter Selinger 2001-2017
</metadata>
<g transform="translate(0.000000,180.000000) scale(0.100000,-0.100000)"
fill="#000000" stroke="none">
<path d="M173 1784 c-56 -20 -117 -78 -148 -139 l-25 -50 3 -705 c1 -530 5
-710 14 -726 7 -12 14 -37 16 -57 2 -20 16 -52 31 -72 l27 -35 744 0 c847 1
804 -3 887 82 81 83 78 56 78 833 l-1 680 -24 50 c-27 57 -61 92 -120 127
l-40 23 -700 2 c-601 1 -706 0 -742 -13z"/>
</g>
</svg>
